<?xml version="1.0" encoding="UTF-8"?>
<!--Generator: Apple Native CoreSVG 232.5-->
<!DOCTYPE svg
PUBLIC "-//W3C//DTD SVG 1.1//EN"
       "http://www.w3.org/Graphics/SVG/1.1/DTD/svg11.dtd">
<svg version="1.1" xmlns="http://www.w3.org/2000/svg" xmlns:xlink="http://www.w3.org/1999/xlink" width="22.0527" height="22.1191">
 <g>
  <rect height="22.1191" opacity="0" width="22.0527" x="0" y="0"/>
  <path d="M4.16109 20.5469C4.56149 20.8594 5.0693 20.752 5.67477 20.3125L10.8408 16.5137L16.0166 20.3125C16.622 20.752 17.1201 20.8594 17.5302 20.5469C17.9306 20.2441 18.0185 19.7461 17.7744 19.0332L15.7334 12.959L20.9482 9.20898C21.5537 8.7793 21.7978 8.33008 21.6416 7.8418C21.4853 7.37305 21.0263 7.13867 20.2744 7.14844L13.8779 7.1875L11.9345 1.08398C11.7002 0.361328 11.3486 0 10.8408 0C10.3427 0 9.99117 0.361328 9.7568 1.08398L7.81344 7.1875L1.41695 7.14844C0.665001 7.13867 0.206017 7.37305 0.0497668 7.8418C-0.116249 8.33008 0.137657 8.7793 0.743126 9.20898L5.95797 12.959L3.91695 19.0332C3.67281 19.7461 3.7607 20.2441 4.16109 20.5469ZM5.56734 18.6133C5.54781 18.5938 5.55758 18.584 5.56734 18.5254L7.5107 12.9395C7.64742 12.5586 7.5693 12.2559 7.2275 12.0215L2.36422 8.66211C2.31539 8.63281 2.30563 8.61328 2.31539 8.58398C2.32516 8.55469 2.34469 8.55469 2.40328 8.55469L8.31149 8.66211C8.71188 8.67188 8.96578 8.50586 9.09274 8.10547L10.792 2.45117C10.8017 2.39258 10.8213 2.37305 10.8408 2.37305C10.8701 2.37305 10.8896 2.39258 10.8994 2.45117L12.5986 8.10547C12.7255 8.50586 12.9795 8.67188 13.3798 8.66211L19.288 8.55469C19.3466 8.55469 19.3662 8.55469 19.3759 8.58398C19.3857 8.61328 19.3662 8.63281 19.3271 8.66211L14.4638 12.0215C14.122 12.2559 14.0439 12.5586 14.1806 12.9395L16.124 18.5254C16.1338 18.584 16.1435 18.5938 16.124 18.6133C16.1045 18.6426 16.0752 18.623 16.0361 18.5938L11.3388 15.0098C11.0263 14.7656 10.665 14.7656 10.3525 15.0098L5.65524 18.5938C5.61617 18.623 5.58688 18.6426 5.56734 18.6133Z" fill="#ffffff" fill-opacity="0.85"/>
 </g>
</svg>
